<?xml version="1.0" encoding="utf-8"?>
<!-- Generator: Adobe Illustrator 27.7.0, SVG Export Plug-In . SVG Version: 6.00 Build 0)  -->
<svg version="1.1" id="Layer_1" xmlns="http://www.w3.org/2000/svg" xmlns:xlink="http://www.w3.org/1999/xlink" x="0px" y="0px"
	 viewBox="0 0 512 512" style="enable-background:new 0 0 512 512;" xml:space="preserve">
<g>
	<path d="M511.73,223.64C493.67,94.13,382.9,0.41,255.64,0.4c-11.86,0-23.86,0.82-35.92,2.49C128.97,15.51,51.65,75.15,16.41,159.73
		c-6.04,14.5,0.82,31.15,15.32,37.2c14.5,6.04,31.15-0.82,37.2-15.32c27.49-65.99,87.82-112.53,158.62-122.37
		c9.46-1.31,18.83-1.95,28.09-1.95c99.09-0.01,185.76,73.14,199.74,174.18c2.16,15.56,16.53,26.42,32.09,24.26
		C503.03,253.57,513.89,239.2,511.73,223.64L511.73,223.64z M0,56.89v113.78c0,7.49,3.03,14.82,8.33,20.11
		c5.3,5.3,12.62,8.33,20.11,8.33h113.78c15.71,0,28.44-12.73,28.44-28.44c0-15.71-12.73-28.44-28.44-28.44H56.89V56.89
		c0-15.71-12.73-28.44-28.44-28.44S0,41.18,0,56.89L0,56.89z"/>
	<path d="M0.27,288.36C18.33,417.87,129.1,511.59,256.36,511.6c11.86,0,23.86-0.82,35.92-2.49
		c90.75-12.61,168.07-72.26,203.31-156.84c6.04-14.5-0.82-31.15-15.32-37.2c-14.5-6.04-31.15,0.82-37.2,15.32
		c-27.49,65.99-87.82,112.53-158.62,122.37c-9.46,1.31-18.83,1.95-28.09,1.95c-99.09,0.01-185.76-73.14-199.74-174.18
		c-2.16-15.56-16.53-26.42-32.09-24.26C8.97,258.43-1.89,272.8,0.27,288.36L0.27,288.36z M512,455.11V341.33
		c0-7.49-3.03-14.82-8.33-20.11c-5.3-5.3-12.62-8.33-20.11-8.33H369.78c-15.71,0-28.44,12.73-28.44,28.44
		c0,15.71,12.73,28.44,28.44,28.44h85.33v85.33c0,15.71,12.73,28.44,28.44,28.44C499.26,483.55,512,470.82,512,455.11z"/>
	<path d="M199.11,256c0.02,31.43,25.46,56.87,56.89,56.89c31.43-0.02,56.87-25.46,56.89-56.89c-0.02-31.43-25.46-56.87-56.89-56.89
		C224.57,199.13,199.13,224.57,199.11,256c0,15.71,12.73,28.44,28.44,28.44S256,271.71,256,256v0v0h0
		c0-15.71-12.73-28.44-28.44-28.44S199.11,240.29,199.11,256L199.11,256z"/>
</g>
</svg>
